<svg width="146" height="62" viewBox="0 0 146 62" fill="none" xmlns="http://www.w3.org/2000/svg">
<path d="M23.6999 18.2715V48.718C23.6999 49.2172 23.5999 59 18.3999 59H23.6999C32.6999 59 39.9999 51.7128 39.9999 42.7285V2C35.4999 2 31.3999 3.79685 28.4999 6.79159C25.5999 9.78634 23.6999 13.7793 23.6999 18.2715Z" fill="#09AE86"/>
<path d="M14.9 47.5999V25.2999C14.9 21.9999 13.6 18.9999 11.4 16.8999C9.2 14.6999 6.3 13.3999 3 13.3999V43.2999C3 49.8999 8.3 55.1999 14.9 55.1999H18.8C14.9 55.1999 14.9 47.9999 14.9 47.5999Z" fill="#09AE86"/>
<path d="M142.9 21.7H136.2L141.7 17.6L141.5 17.3C140.6 16.1 138.9 15.9 137.7 16.8L131 21.7H95.3999V24.6H108.2V26.5L96.1999 32.9L96.3999 36.7L109 46.7H112.1V30.7C113.8 30.8 116.1 31.3 117.1 33.2C118 34.7 117.8 36.5 117.3 37.5C117 38 116.6 38.6 115.8 38.7V42.5C117.7 42.3 119.7 41 120.7 39.2C121.9 36.8 121.8 33.7 120.5 31.3C118.6 27.8 114.7 27 112.2 26.9V24.6H123.4L130.2 31.7L123.7 36.9L124.2 39.3L138.1 46.6H141.2V24.6H143.1V21.7H142.9ZM108.2 41.3L100.6 35.3L108.2 31.3V41.3ZM128.8 37.6L133.6 33.8L137.4 36.5V42.1L128.8 37.6ZM137.3 32.5L133 29.4L128.4 24.6H137.3V32.5Z" fill="#09AE86"/>
<path d="M71.8998 16.4001C70.2998 14.7001 68.1998 13.8 65.3998 13.8H52.2998C52.2998 15.9 53.9998 17.6001 56.0998 17.6001H65.3998C66.9998 17.6001 68.1998 18 69.0998 19C69.7998 19.8 70.1998 20.9 70.3998 21.8H52.3998V24.7001H61.3998V32.1001C61.3998 35.0001 64.1998 37.2001 66.9998 36.4001L70.9998 35.4001C70.9998 37.1001 70.5998 39.4 69.2998 41C68.1998 42.3 66.4998 42.9 64.1998 42.9C62.1998 42.9 60.6998 42.3 59.4998 41C57.5998 39 56.7998 35.9 56.4998 33.5C56.1998 31.5 54.5998 29.9 52.5998 29.8C52.5998 30.2 52.1998 38.8001 56.7998 43.6001C58.6998 45.6001 61.1998 46.7001 64.1998 46.7001C67.5998 46.7001 70.2998 45.6 72.0998 43.4C75.5998 39.3 74.5998 33.0001 74.5998 32.7001L74.2998 30.7001L67.8998 32.3C66.5998 32.6 65.1998 31.6001 65.1998 30.2001V24.6001H76.2998V21.7001H74.2998C73.8998 20.1001 73.3998 18.0001 71.8998 16.4001Z" fill="#09AE86"/>
<path d="M88.0001 31.4L90.1001 34.4C91.7001 33.1 92.7001 31.1 92.7001 28.9C92.7001 25 89.5001 21.8 85.6001 21.7C85.6001 21.7 85.2001 21.7 85.1001 21.7C85.0001 21.7 85.0001 21.7 84.9001 21.7C84.8001 21.7 84.6001 21.6999 84.5001 21.7999C84.4001 21.7999 84.4001 21.7999 84.3001 21.7999C84.2001 21.7999 84.1001 21.8 84.0001 21.9C83.9001 21.9 83.7001 22 83.6001 22H83.5001C82.4001 22.3 81.5001 22.9 80.7001 23.7C79.7001 24.6 79.0001 25.8 78.7001 27.1C77.8001 30 78.5001 33.4 80.4001 35.6C82.3001 37.8 83.9001 38.8 85.1001 39.7C86.3001 40.5 87.1001 41.1 87.9001 42.4C89.2001 44.6 88.1001 46.7999 88.1001 46.8999C90.0001 47.9999 92.5001 46.5 92.3001 44.2C92.2001 43 91.9001 41.7 91.1001 40.4C89.9001 38.4 88.6001 37.5 87.2001 36.5L87.1001 36.4C86.9001 36.3 86.8001 36.2 86.6001 36C85.6001 35.3 84.6001 34.5 83.2001 33C83.1001 32.9 83.1001 32.8 83.0001 32.7C82.2001 31.4 82.0001 30.1 82.1001 28.7C82.1001 28.4 82.2001 28.0999 82.2001 27.7999C82.6001 26.3999 84.0001 25.2999 85.6001 25.2999C85.9001 25.2999 86.1001 25.3 86.4001 25.4C87.9001 25.8 89.1001 27.0999 89.1001 28.7999C89.1001 29.2999 89.0001 29.7 88.8001 30.2C88.5001 30.7 88.3001 31.1 88.0001 31.4Z" fill="#09AE86"/>
</svg>
